<?xml version="1.0" encoding="utf-8"?>
<!-- Generator: Adobe Illustrator 24.0.0, SVG Export Plug-In . SVG Version: 6.00 Build 0)  -->
<svg version="1.1" id="Layer_1" xmlns="http://www.w3.org/2000/svg" xmlns:xlink="http://www.w3.org/1999/xlink" x="0px" y="0px"
	 viewBox="0 0 1920 1080" style="enable-background:new 0 0 1920 1080;" xml:space="preserve" fill="#0078F0">
<g>
	<path d="M129.55,543.1l55.71-27.36c15.55-7.64,34.35-1.23,41.99,14.32l62.93,128.1c7.64,15.55,1.23,34.35-14.32,41.99l-34.09,16.75
		l-81.85-166.62c-0.65-1.31-1.88-2.24-3.32-2.49L129.55,543.1z M486.87,827.06c-90.57,44.49-191.93,42.22-276.73,2.55
		c-0.99-0.47-1-1.88-0.02-2.37l153.52-75.42c1.43-0.7,2.59-1.83,3.33-3.23l37.73-71.46c0.69-1.3,0.71-2.84,0.06-4.15L284.99,429.14
		c-0.65-1.32-1.88-2.24-3.32-2.49l-79.62-13.81c-1.56-0.27-3.17-0.04-4.6,0.66L31.25,495.15c-0.95,0.46-2.04-0.33-1.88-1.37
		c14.79-100.66,77.25-192.59,175.48-240.84s209.16-41.51,297.87,8.31c0.92,0.52,0.88,1.86-0.07,2.33l-41.3,20.29
		c-1.37,0.67-2.22,2.07-2.19,3.6l0.49,24.07l-37.96-6.58c-1.56-0.27-3.17-0.04-4.6,0.66l-66.04,32.44c-1.42,0.7-2.59,1.83-3.33,3.24
		l-37.73,71.46c-0.68,1.29-0.7,2.84-0.06,4.15l119.78,243.84c0.65,1.32,1.88,2.24,3.33,2.49l79.62,13.81
		c1.56,0.27,3.17,0.04,4.6-0.66l138.92-68.24c0.98-0.48,2.1,0.39,1.86,1.46C637.59,700.95,577.43,782.57,486.87,827.06 M29.91,576.4
		l36.45,6.32c1.49,0.25,2.76,1.21,3.42,2.56l110.92,225.8c0.57,1.17-0.74,2.38-1.85,1.7c-50.04-30.57-92.28-75.24-120.05-131.76
		c-16.38-33.33-26.4-68.13-30.57-103.02C28.12,577.03,28.96,576.24,29.91,576.4 M389.64,415.33l83.44-40.99l22.56,45.93
		c0.59,1.2,2.04,1.69,3.24,1.1l69.85-34.31c1.24-0.61,1.86-2.03,1.45-3.35l-29.05-94.06c-0.38-1.22,1.05-2.21,2.05-1.42
		c36.76,28.77,67.78,66.04,89.74,110.75c24.81,50.5,35.08,104.36,32.43,156.84c-0.07,1.34-1.89,1.71-2.48,0.5l-39.18-79.77
		c-0.59-1.2-2.04-1.69-3.24-1.1l-76.54,37.6c-1.2,0.59-1.69,2.04-1.1,3.23l20.87,42.48L530,575.3
		c-15.55,7.64-34.35,1.23-41.99-14.32l-68.02-138.46c-0.65-1.32-1.88-2.24-3.33-2.49L389.64,415.33z M193.4,229.65
		C21.99,313.85-48.7,521.06,35.5,692.46c84.2,171.4,291.41,242.1,462.81,157.89c171.41-84.2,242.1-291.41,157.9-462.81
		S364.8,145.44,193.4,229.65"/>
	<path d="M863.32,316.75h-43.98c-0.57,0-1.03,0.46-1.03,1.03V575.1h-34.27c-2.13,0-3.85-1.72-3.85-3.85V317.78
		c0-0.57-0.46-1.03-1.03-1.03h-70.89c-0.43,0-0.82,0.27-0.96,0.68c-0.14,0.41-0.02,0.86,0.31,1.14l26.89,22.14v252.49
		c0,15.43,12.5,27.93,27.93,27.93h100.88c0.57,0,1.03-0.46,1.03-1.03V317.78C864.34,317.21,863.88,316.75,863.32,316.75"/>
	<path d="M1045.66,316.75h-43.98c-0.57,0-1.03,0.46-1.03,1.03v156.77l-55.23-156.98c-0.1-0.47-0.52-0.81-1-0.81h-40.41
		c-0.56,0-1.02,0.46-1.02,1.03v302.33c0,0.57,0.46,1.03,1.02,1.03h43.62c0.57,0,1.03-0.46,1.03-1.03V464.95l58.08,155.37
		c0.1,0.48,0.52,0.82,1.01,0.82h37.92c0.56,0,1.02-0.46,1.02-1.03V317.78C1046.69,317.21,1046.23,316.75,1045.66,316.75"/>
	<path d="M1129.98,316.75h-43.62c-0.57,0-1.03,0.46-1.03,1.03v302.33c0,0.57,0.46,1.03,1.03,1.03h43.62c0.57,0,1.03-0.46,1.03-1.03
		V317.78C1131.01,317.21,1130.55,316.75,1129.98,316.75"/>
	<path d="M1293.14,316.75h-43.98c-0.55,0-1,0.43-1.03,0.97L1227.6,575.1l-20.45-257.37c-0.03-0.55-0.48-0.97-1.03-0.97h-43.98
		c-0.28,0-0.55,0.12-0.75,0.32c-0.19,0.21-0.29,0.48-0.28,0.76l22.78,302.33c0.03,0.54,0.48,0.97,1.03,0.97h85.42
		c0.55,0,1-0.43,1.03-0.97l22.78-302.33c0.01-0.28-0.09-0.55-0.28-0.76C1293.69,316.87,1293.42,316.75,1293.14,316.75"/>
	<path d="M1594.68,481.89V344.68c0-15.4-12.37-27.92-27.57-27.92h-100.88c-0.57,0-1.03,0.46-1.03,1.03v302.33
		c0,0.57,0.46,1.03,1.03,1.03h43.62c0.56,0,1.02-0.46,1.02-1.03V509.46h23.38l19.68,110.82c0.08,0.5,0.51,0.86,1.02,0.86h45.63
		c0.31,0,0.59-0.13,0.79-0.37c0.2-0.23,0.27-0.54,0.22-0.84l-22.07-113.46C1588.76,501.88,1594.68,492.32,1594.68,481.89
		 M1546.64,368.46v89.77c0,3.14-2.55,5.69-5.69,5.69h-32.72V362.77h32.72C1544.1,362.77,1546.64,365.32,1546.64,368.46"/>
	<path d="M1633.31,532.54v61.7c0,14.86,12.04,26.9,26.9,26.9h76.03c14.8,0,26.9-12.11,26.9-26.9V466.47
		c0-14.86-12.04-26.9-26.9-26.9h-57.26v-77.14h38.12v54.14c0,0.62,0.65,1.03,1.21,0.76l44.35-21c0.29-0.14,0.48-0.44,0.48-0.76
		v-51.92c0-14.85-12.04-26.89-26.9-26.89h-76.04c-14.86,0-26.9,12.04-26.9,26.9v114.7c0,14.85,12.04,26.9,26.89,26.9h56.9v89.86
		h-38.12v-63.65c0-0.37-0.39-0.62-0.72-0.46l-44.66,21.09C1633.42,532.16,1633.31,532.34,1633.31,532.54"/>
	<path d="M1906.52,362.42c0.44,0,0.83-0.28,0.97-0.69l12.46-43.62c0.11-0.31,0.06-0.66-0.14-0.93c-0.19-0.27-0.5-0.43-0.83-0.43
		h-116.16c-0.56,0-1.02,0.46-1.02,1.03v302.33c0,0.57,0.46,1.03,1.02,1.03h108.68c0.57,0,1.03-0.46,1.03-1.03v-43.98
		c0-0.57-0.46-1.03-1.03-1.03h-64.03v-89.86h52.79c0.57,0,1.03-0.46,1.03-1.03V440.6c0-0.57-0.46-1.03-1.03-1.03h-52.79v-77.14
		H1906.52z"/>
	<path d="M1427.04,362.42c0.44,0,0.83-0.28,0.97-0.69l12.45-43.62c0.11-0.31,0.06-0.66-0.14-0.93c-0.19-0.27-0.5-0.43-0.83-0.43
		h-116.16c-0.57,0-1.03,0.46-1.03,1.03v302.33c0,0.57,0.46,1.03,1.03,1.03h108.68c0.56,0,1.02-0.46,1.02-1.03v-43.98
		c0-0.57-0.46-1.03-1.02-1.03h-64.03v-89.86h52.79c0.57,0,1.03-0.46,1.03-1.03V440.6c0-0.57-0.46-1.03-1.03-1.03h-52.79v-77.14
		H1427.04z"/>
	<rect x="734.99" y="663.58" width="32.48" height="99.67"/>
	<polygon points="841.3,663.58 868.31,663.58 941.82,725.3 942.85,725.3 942.85,663.58 971.4,663.58 971.4,763.25 943.88,763.25 
		870.88,700.85 870.03,700.85 870.03,763.25 841.3,763.25 	"/>
	<polygon points="1045.38,663.58 1145.05,663.58 1145.05,684.61 1077.86,684.61 1077.86,709.91 1133.59,709.91 1133.59,729.74 
		1077.86,729.74 1077.86,763.25 1045.38,763.25 	"/>
	<rect x="1209.12" y="663.58" width="32.48" height="99.67"/>
	<polygon points="1315.43,663.58 1342.45,663.58 1415.95,725.3 1416.98,725.3 1416.98,663.58 1445.53,663.58 1445.53,763.25 
		1418.01,763.25 1345.01,700.85 1344.16,700.85 1344.16,763.25 1315.43,763.25 	"/>
	<rect x="1519.51" y="663.58" width="32.48" height="99.67"/>
	<polygon points="1615.23,663.58 1744.98,663.58 1744.98,686.15 1696.09,686.15 1696.09,763.25 1663.6,763.25 1663.6,686.15 
		1615.23,686.15 	"/>
	<polygon points="1808.19,663.58 1912.48,663.58 1912.48,684.61 1840.68,684.61 1840.68,703.42 1901.19,703.42 1901.19,722.05 
		1840.68,722.05 1840.68,742.05 1914.19,742.05 1914.19,763.25 1808.19,763.25 	"/>
</g>
</svg>
